PathFileType	3	(X/Y/Z)	E:\ViconData\BIOM9541 2025\Week 7\Wed1100\Hanif deep squat 7-5 Squat 01.trc
DataRate	CameraRate	NumFrames	NumMarkers	Units	OrigDataRate	OrigDataStartFrame	OrigNumFrames
200.0	200.0	10	19	mm	200.0	691	1840	
Frame#	Time	C7			CLAV			RBAK			LASI			RASI			LPSI			RPSI			LTHI			LKNE			LTIB			LANK			LHEE			LTOE			RTHI			RKNE			RTIB			RANK			RHEE			RTOE			
		X1	Y1	Z1	X2	Y2	Z2	X3	Y3	Z3	X4	Y4	Z4	X5	Y5	Z5	X6	Y6	Z6	X7	Y7	Z7	X8	Y8	Z8	X9	Y9	Z9	X10	Y10	Z10	X11	Y11	Z11	X12	Y12	Z12	X13	Y13	Z13	X14	Y14	Z14	X15	Y15	Z15	X16	Y16	Z16	X17	Y17	Z17	X18	Y18	Z18	X19	Y19	Z19	
691	3.45	342.76169	1320.5081	-1219.8567	192.11227	1252.7556	-1208.864	352.37155	1240.936	-1371.2107	214.19688	885.05682	-1090.9434	211.61783	893.69543	-1354.6592	383.81561	941.66022	-1178.8811	383.91739	938.60834	-1252.1882	257.26892	561.21796	-1014.3342	265.76804	422.14355	-1020.1393	291.21368	219.62704	-992.1142	303.25586	62.682137	-1004.961	321.22992	48.105892	-1065.1713	158.89592	37.803558	-968.51569	267.75809	735.09119	-1419.6207	278.81393	421.84399	-1424.0885	291.88495	333.81003	-1443.3979	305.23389	72.681465	-1430.3154	325.02811	48.164635	-1366.012	162.41023	40.339478	-1463.4531
692	3.455	342.65088	1320.5134	-1219.9382	192.05164	1252.7225	-1208.8721	352.32263	1240.9805	-1371.2963	214.60368	884.9386	-1091.0729	211.86632	893.547	-1354.6914	384.16949	941.67749	-1179.1139	384.25806	938.66089	-1252.3385	257.09033	561.29584	-1014.1055	265.27972	422.15518	-1019.8573	290.93393	219.61746	-991.97961	303.25101	62.687241	-1004.9885	321.19904	48.088352	-1065.1946	158.87038	37.827576	-968.51953	267.95926	735.04883	-1419.6896	278.3035	421.76715	-1424.3865	291.46405	333.7291	-1443.6621	305.18842	72.655411	-1430.3311	325.02454	48.146694	-1366.0297	162.41336	40.309608	-1463.4336
693	3.46	342.54568	1320.572	-1220.0327	192.00308	1252.6299	-1208.899	352.23785	1241.0315	-1371.3789	215.73839	884.51709	-1092.7883	212.13414	893.44812	-1354.7711	384.53232	941.81635	-1179.2635	385.06107	938.45605	-1253.1797	256.84616	561.37543	-1013.8533	264.75745	422.19324	-1019.5624	290.64273	219.5854	-991.86328	302.8985	62.30365	-1005.2949	321.09067	48.154362	-1065.2283	158.85284	37.853401	-968.58142	268.15381	735.04913	-1419.7458	277.69067	421.76099	-1424.6902	290.96722	333.68768	-1443.9061	305.16028	72.679893	-1430.3582	325.02704	48.178272	-1366.0388	162.41174	40.319973	-1463.3741
694	3.465	342.41278	1320.6075	-1220.142	191.94249	1252.5475	-1208.8496	352.10745	1241.0817	-1371.4763	216.20146	884.4483	-1092.9069	212.42413	893.34326	-1354.801	384.92947	941.86505	-1179.2876	384.97223	938.77112	-1252.6677	256.58264	561.43335	-1013.6062	264.08563	422.19287	-1019.238	290.35318	219.54117	-991.72552	302.84543	62.365337	-1005.2713	321.05353	48.250751	-1065.2397	158.8369	37.899967	-968.58643	268.35452	735.04492	-1419.8065	277.06812	421.77097	-1425.0975	290.35608	333.70465	-1444.162	305.07401	72.722878	-1430.392	324.98087	48.212952	-1366.0212	162.39563	40.423119	-1463.397
695	3.47	342.27951	1320.6162	-1220.2418	191.83505	1252.3925	-1208.839	352.04721	1241.1018	-1371.5961	216.70509	884.29889	-1093.0306	212.74388	893.1391	-1354.8276	385.36539	941.92725	-1179.6261	385.37674	938.80939	-1252.8345	256.28021	561.50244	-1013.3033	263.35852	422.26245	-1018.8519	289.94269	219.51538	-991.52942	302.81683	62.37928	-1005.2977	321.02301	48.262482	-1065.2278	158.84172	37.921177	-968.61853	268.56281	735.01892	-1419.8966	276.42319	421.70148	-1425.5264	289.7746	333.57169	-1444.4746	305.05304	72.707397	-1430.4547	324.9917	48.25919	-1366.0828	162.40253	40.411713	-1463.3933
696	3.475	342.13541	1320.6066	-1220.3439	192.22227	1251.7236	-1209.0599	351.91003	1241.0979	-1371.7072	217.15002	884.10803	-1093.1007	213.12303	892.85022	-1354.8419	385.81705	941.91827	-1179.8223	385.78284	938.82446	-1252.9749	255.92351	561.5976	-1012.9852	262.51758	422.17474	-1018.4615	289.53201	219.53906	-991.3429	302.8179	62.355549	-1005.3129	321.02161	48.254967	-1065.2493	158.87503	37.916821	-968.66534	268.88101	734.89911	-1420.0028	275.6915	421.53506	-1425.9686	289.1644	333.48511	-1444.8522	304.98199	72.648735	-1430.5508	325.00735	48.234955	-1366.1852	162.40448	40.36039	-1463.3733
697	3.48	341.94855	1320.5013	-1220.5046	192.13235	1251.4828	-1209.0609	351.91565	1240.9999	-1371.8293	217.6884	883.97571	-1093.3248	213.50479	892.65338	-1354.9066	386.28458	941.90881	-1179.9971	386.74713	938.59662	-1253.8632	255.48515	561.72467	-1012.583	261.65015	422.25003	-1017.9797	289.09695	219.52205	-991.1145	302.7691	62.334869	-1005.2877	320.71851	48.01133	-1064.9445	158.86224	37.904812	-968.66235	269.1604	734.85437	-1420.1448	274.9068	421.42041	-1426.4315	288.48135	333.32065	-1445.214	304.91455	72.585487	-1430.637	324.99188	48.199242	-1366.245	162.40123	40.319538	-1463.37
698	3.485	341.76816	1320.4313	-1220.6036	192.11926	1251.09	-1209.095	351.71567	1241.0909	-1371.9429	218.2912	883.76459	-1093.5592	213.8842	892.42676	-1354.9402	386.78397	941.85443	-1180.1292	387.21848	938.60999	-1254.0062	255.02431	561.7193	-1012.2787	260.63904	422.15854	-1017.4744	288.59235	219.44711	-990.9129	302.67929	62.332886	-1005.2352	320.6748	48.065994	-1064.9105	158.85416	37.911747	-968.67017	269.44922	734.86035	-1420.2688	274.08371	421.38458	-1426.9698	287.69708	333.27945	-1445.6075	304.82507	72.571198	-1430.7228	324.99756	48.19268	-1366.2577	162.38216	40.32872	-1463.3334
699	3.49	341.56143	1320.4028	-1220.651	191.94598	1250.9758	-1208.9827	351.53561	1241.0706	-1372.0443	218.81476	883.54425	-1093.7245	214.27315	892.20044	-1354.9326	387.29193	941.86804	-1180.0853	387.14926	938.74536	-1253.4156	254.53502	561.77368	-1011.9514	259.62537	422.14667	-1016.9836	288.03058	219.34076	-990.67877	302.55847	62.349113	-1005.1532	320.67401	48.145023	-1064.8666	158.83829	37.933601	-968.64386	269.80624	734.8454	-1420.4037	273.21429	421.39743	-1427.4955	286.97092	333.24066	-1446.0438	304.74478	72.621185	-1430.8092	325.02551	48.24683	-1366.276	162.3804	40.394966	-1463.2899
700	3.495	341.37454	1320.3755	-1220.7325	191.36011	1251.3009	-1208.8446	351.36887	1241.1265	-1372.1536	219.4082	883.3053	-1093.9272	214.73001	892.01721	-1355.006	387.82831	941.84698	-1180.1689	387.66354	938.69073	-1253.6243	253.92426	561.82391	-1011.5577	258.42123	422.11819	-1016.3956	287.38931	219.30482	-990.42157	302.45944	62.354912	-1005.1176	320.66486	48.267948	-1064.8702	158.85423	37.95776	-968.67859	270.11987	734.85144	-1420.5302	272.30978	421.36639	-1428.0815	286.21585	333.23279	-1446.495	304.71533	72.664062	-1430.9048	325.02982	48.239986	-1366.2744	162.38364	40.44305	-1463.2914
